<mxfile host="app.diagrams.net" agent="Mozilla/5.0 (Windows NT 10.0; Win64; x64) AppleWebKit/537.36 (KHTML, like Gecko) Chrome/132.0.0.0 Safari/537.36" version="26.0.14">
  <diagram id="R2lEEEUBdFMjLlhIrx00" name="Page-1">
    <mxGraphModel dx="992" dy="428" grid="1" gridSize="10" guides="1" tooltips="1" connect="1" arrows="1" fold="1" page="1" pageScale="1" pageWidth="850" pageHeight="1100" math="0" shadow="0" extFonts="Permanent Marker^https://fonts.googleapis.com/css?family=Permanent+Marker">
      <root>
        <mxCell id="0" />
        <mxCell id="1" parent="0" />
        <mxCell id="qxMyWzPqdfgqMwpPQ5BD-3" value="Фильм (Movie)" style="shape=table;startSize=30;container=1;collapsible=1;childLayout=tableLayout;fixedRows=1;rowLines=0;fontStyle=1;align=center;resizeLast=1;html=1;" parent="1" vertex="1">
          <mxGeometry x="310" y="400" width="240" height="180" as="geometry" />
        </mxCell>
        <mxCell id="qxMyWzPqdfgqMwpPQ5BD-4" value="" style="shape=tableRow;horizontal=0;startSize=0;swimlaneHead=0;swimlaneBody=0;fillColor=none;collapsible=0;dropTarget=0;points=[[0,0.5],[1,0.5]];portConstraint=eastwest;top=0;left=0;right=0;bottom=1;" parent="qxMyWzPqdfgqMwpPQ5BD-3" vertex="1">
          <mxGeometry y="30" width="240" height="30" as="geometry" />
        </mxCell>
        <mxCell id="qxMyWzPqdfgqMwpPQ5BD-5" value="PK" style="shape=partialRectangle;connectable=0;fillColor=none;top=0;left=0;bottom=0;right=0;fontStyle=1;overflow=hidden;whiteSpace=wrap;html=1;" parent="qxMyWzPqdfgqMwpPQ5BD-4" vertex="1">
          <mxGeometry width="30" height="30" as="geometry">
            <mxRectangle width="30" height="30" as="alternateBounds" />
          </mxGeometry>
        </mxCell>
        <mxCell id="qxMyWzPqdfgqMwpPQ5BD-6" value="int id&amp;nbsp;(NOT NULL)" style="shape=partialRectangle;connectable=0;fillColor=none;top=0;left=0;bottom=0;right=0;align=left;spacingLeft=6;fontStyle=5;overflow=hidden;whiteSpace=wrap;html=1;" parent="qxMyWzPqdfgqMwpPQ5BD-4" vertex="1">
          <mxGeometry x="30" width="210" height="30" as="geometry">
            <mxRectangle width="210" height="30" as="alternateBounds" />
          </mxGeometry>
        </mxCell>
        <mxCell id="qxMyWzPqdfgqMwpPQ5BD-7" value="" style="shape=tableRow;horizontal=0;startSize=0;swimlaneHead=0;swimlaneBody=0;fillColor=none;collapsible=0;dropTarget=0;points=[[0,0.5],[1,0.5]];portConstraint=eastwest;top=0;left=0;right=0;bottom=0;" parent="qxMyWzPqdfgqMwpPQ5BD-3" vertex="1">
          <mxGeometry y="60" width="240" height="20" as="geometry" />
        </mxCell>
        <mxCell id="qxMyWzPqdfgqMwpPQ5BD-8" value="" style="shape=partialRectangle;connectable=0;fillColor=none;top=0;left=0;bottom=0;right=0;editable=1;overflow=hidden;whiteSpace=wrap;html=1;" parent="qxMyWzPqdfgqMwpPQ5BD-7" vertex="1">
          <mxGeometry width="30" height="20" as="geometry">
            <mxRectangle width="30" height="20" as="alternateBounds" />
          </mxGeometry>
        </mxCell>
        <mxCell id="qxMyWzPqdfgqMwpPQ5BD-9" value="string name (NOT NULL)" style="shape=partialRectangle;connectable=0;fillColor=none;top=0;left=0;bottom=0;right=0;align=left;spacingLeft=6;overflow=hidden;whiteSpace=wrap;html=1;" parent="qxMyWzPqdfgqMwpPQ5BD-7" vertex="1">
          <mxGeometry x="30" width="210" height="20" as="geometry">
            <mxRectangle width="210" height="20" as="alternateBounds" />
          </mxGeometry>
        </mxCell>
        <mxCell id="qxMyWzPqdfgqMwpPQ5BD-10" value="" style="shape=tableRow;horizontal=0;startSize=0;swimlaneHead=0;swimlaneBody=0;fillColor=none;collapsible=0;dropTarget=0;points=[[0,0.5],[1,0.5]];portConstraint=eastwest;top=0;left=0;right=0;bottom=0;" parent="qxMyWzPqdfgqMwpPQ5BD-3" vertex="1">
          <mxGeometry y="80" width="240" height="20" as="geometry" />
        </mxCell>
        <mxCell id="qxMyWzPqdfgqMwpPQ5BD-11" value="" style="shape=partialRectangle;connectable=0;fillColor=none;top=0;left=0;bottom=0;right=0;editable=1;overflow=hidden;whiteSpace=wrap;html=1;" parent="qxMyWzPqdfgqMwpPQ5BD-10" vertex="1">
          <mxGeometry width="30" height="20" as="geometry">
            <mxRectangle width="30" height="20" as="alternateBounds" />
          </mxGeometry>
        </mxCell>
        <mxCell id="qxMyWzPqdfgqMwpPQ5BD-12" value="DateTime creation_date (NOT NULL)" style="shape=partialRectangle;connectable=0;fillColor=none;top=0;left=0;bottom=0;right=0;align=left;spacingLeft=6;overflow=hidden;whiteSpace=wrap;html=1;" parent="qxMyWzPqdfgqMwpPQ5BD-10" vertex="1">
          <mxGeometry x="30" width="210" height="20" as="geometry">
            <mxRectangle width="210" height="20" as="alternateBounds" />
          </mxGeometry>
        </mxCell>
        <mxCell id="qxMyWzPqdfgqMwpPQ5BD-13" value="" style="shape=tableRow;horizontal=0;startSize=0;swimlaneHead=0;swimlaneBody=0;fillColor=none;collapsible=0;dropTarget=0;points=[[0,0.5],[1,0.5]];portConstraint=eastwest;top=0;left=0;right=0;bottom=0;" parent="qxMyWzPqdfgqMwpPQ5BD-3" vertex="1">
          <mxGeometry y="100" width="240" height="20" as="geometry" />
        </mxCell>
        <mxCell id="qxMyWzPqdfgqMwpPQ5BD-14" value="" style="shape=partialRectangle;connectable=0;fillColor=none;top=0;left=0;bottom=0;right=0;editable=1;overflow=hidden;whiteSpace=wrap;html=1;" parent="qxMyWzPqdfgqMwpPQ5BD-13" vertex="1">
          <mxGeometry width="30" height="20" as="geometry">
            <mxRectangle width="30" height="20" as="alternateBounds" />
          </mxGeometry>
        </mxCell>
        <mxCell id="qxMyWzPqdfgqMwpPQ5BD-15" value="string annotation" style="shape=partialRectangle;connectable=0;fillColor=none;top=0;left=0;bottom=0;right=0;align=left;spacingLeft=6;overflow=hidden;whiteSpace=wrap;html=1;" parent="qxMyWzPqdfgqMwpPQ5BD-13" vertex="1">
          <mxGeometry x="30" width="210" height="20" as="geometry">
            <mxRectangle width="210" height="20" as="alternateBounds" />
          </mxGeometry>
        </mxCell>
        <mxCell id="qxMyWzPqdfgqMwpPQ5BD-17" value="" style="shape=tableRow;horizontal=0;startSize=0;swimlaneHead=0;swimlaneBody=0;fillColor=none;collapsible=0;dropTarget=0;points=[[0,0.5],[1,0.5]];portConstraint=eastwest;top=0;left=0;right=0;bottom=0;" parent="qxMyWzPqdfgqMwpPQ5BD-3" vertex="1">
          <mxGeometry y="120" width="240" height="20" as="geometry" />
        </mxCell>
        <mxCell id="qxMyWzPqdfgqMwpPQ5BD-18" value="FK1" style="shape=partialRectangle;connectable=0;fillColor=none;top=0;left=0;bottom=0;right=0;editable=1;overflow=hidden;" parent="qxMyWzPqdfgqMwpPQ5BD-17" vertex="1">
          <mxGeometry width="30" height="20" as="geometry">
            <mxRectangle width="30" height="20" as="alternateBounds" />
          </mxGeometry>
        </mxCell>
        <mxCell id="qxMyWzPqdfgqMwpPQ5BD-19" value="int main_producer (NOT NULL)" style="shape=partialRectangle;connectable=0;fillColor=none;top=0;left=0;bottom=0;right=0;align=left;spacingLeft=6;overflow=hidden;" parent="qxMyWzPqdfgqMwpPQ5BD-17" vertex="1">
          <mxGeometry x="30" width="210" height="20" as="geometry">
            <mxRectangle width="210" height="20" as="alternateBounds" />
          </mxGeometry>
        </mxCell>
        <mxCell id="tSDNeqlSTbHbwNg6o-KT-6" value="" style="shape=tableRow;horizontal=0;startSize=0;swimlaneHead=0;swimlaneBody=0;fillColor=none;collapsible=0;dropTarget=0;points=[[0,0.5],[1,0.5]];portConstraint=eastwest;top=0;left=0;right=0;bottom=0;" parent="qxMyWzPqdfgqMwpPQ5BD-3" vertex="1">
          <mxGeometry y="140" width="240" height="20" as="geometry" />
        </mxCell>
        <mxCell id="tSDNeqlSTbHbwNg6o-KT-7" value="" style="shape=partialRectangle;connectable=0;fillColor=none;top=0;left=0;bottom=0;right=0;editable=1;overflow=hidden;" parent="tSDNeqlSTbHbwNg6o-KT-6" vertex="1">
          <mxGeometry width="30" height="20" as="geometry">
            <mxRectangle width="30" height="20" as="alternateBounds" />
          </mxGeometry>
        </mxCell>
        <mxCell id="tSDNeqlSTbHbwNg6o-KT-8" value="int duration" style="shape=partialRectangle;connectable=0;fillColor=none;top=0;left=0;bottom=0;right=0;align=left;spacingLeft=6;overflow=hidden;" parent="tSDNeqlSTbHbwNg6o-KT-6" vertex="1">
          <mxGeometry x="30" width="210" height="20" as="geometry">
            <mxRectangle width="210" height="20" as="alternateBounds" />
          </mxGeometry>
        </mxCell>
        <mxCell id="tSDNeqlSTbHbwNg6o-KT-10" value="" style="shape=tableRow;horizontal=0;startSize=0;swimlaneHead=0;swimlaneBody=0;fillColor=none;collapsible=0;dropTarget=0;points=[[0,0.5],[1,0.5]];portConstraint=eastwest;top=0;left=0;right=0;bottom=0;" parent="qxMyWzPqdfgqMwpPQ5BD-3" vertex="1">
          <mxGeometry y="160" width="240" height="20" as="geometry" />
        </mxCell>
        <mxCell id="tSDNeqlSTbHbwNg6o-KT-11" value="" style="shape=partialRectangle;connectable=0;fillColor=none;top=0;left=0;bottom=0;right=0;editable=1;overflow=hidden;" parent="tSDNeqlSTbHbwNg6o-KT-10" vertex="1">
          <mxGeometry width="30" height="20" as="geometry">
            <mxRectangle width="30" height="20" as="alternateBounds" />
          </mxGeometry>
        </mxCell>
        <mxCell id="tSDNeqlSTbHbwNg6o-KT-12" value="float rate" style="shape=partialRectangle;connectable=0;fillColor=none;top=0;left=0;bottom=0;right=0;align=left;spacingLeft=6;overflow=hidden;" parent="tSDNeqlSTbHbwNg6o-KT-10" vertex="1">
          <mxGeometry x="30" width="210" height="20" as="geometry">
            <mxRectangle width="210" height="20" as="alternateBounds" />
          </mxGeometry>
        </mxCell>
        <mxCell id="qxMyWzPqdfgqMwpPQ5BD-24" value="Режиссер (Producer)" style="shape=table;startSize=30;container=1;collapsible=1;childLayout=tableLayout;fixedRows=1;rowLines=0;fontStyle=1;align=center;resizeLast=1;html=1;" parent="1" vertex="1">
          <mxGeometry x="20" y="40" width="214" height="145" as="geometry" />
        </mxCell>
        <mxCell id="qxMyWzPqdfgqMwpPQ5BD-25" value="" style="shape=tableRow;horizontal=0;startSize=0;swimlaneHead=0;swimlaneBody=0;fillColor=none;collapsible=0;dropTarget=0;points=[[0,0.5],[1,0.5]];portConstraint=eastwest;top=0;left=0;right=0;bottom=1;" parent="qxMyWzPqdfgqMwpPQ5BD-24" vertex="1">
          <mxGeometry y="30" width="214" height="30" as="geometry" />
        </mxCell>
        <mxCell id="qxMyWzPqdfgqMwpPQ5BD-26" value="PK" style="shape=partialRectangle;connectable=0;fillColor=none;top=0;left=0;bottom=0;right=0;fontStyle=1;overflow=hidden;whiteSpace=wrap;html=1;" parent="qxMyWzPqdfgqMwpPQ5BD-25" vertex="1">
          <mxGeometry width="30" height="30" as="geometry">
            <mxRectangle width="30" height="30" as="alternateBounds" />
          </mxGeometry>
        </mxCell>
        <mxCell id="qxMyWzPqdfgqMwpPQ5BD-27" value="int id (NOT NULL)" style="shape=partialRectangle;connectable=0;fillColor=none;top=0;left=0;bottom=0;right=0;align=left;spacingLeft=6;fontStyle=5;overflow=hidden;whiteSpace=wrap;html=1;" parent="qxMyWzPqdfgqMwpPQ5BD-25" vertex="1">
          <mxGeometry x="30" width="184" height="30" as="geometry">
            <mxRectangle width="184" height="30" as="alternateBounds" />
          </mxGeometry>
        </mxCell>
        <mxCell id="qxMyWzPqdfgqMwpPQ5BD-28" value="" style="shape=tableRow;horizontal=0;startSize=0;swimlaneHead=0;swimlaneBody=0;fillColor=none;collapsible=0;dropTarget=0;points=[[0,0.5],[1,0.5]];portConstraint=eastwest;top=0;left=0;right=0;bottom=0;" parent="qxMyWzPqdfgqMwpPQ5BD-24" vertex="1">
          <mxGeometry y="60" width="214" height="25" as="geometry" />
        </mxCell>
        <mxCell id="qxMyWzPqdfgqMwpPQ5BD-29" value="" style="shape=partialRectangle;connectable=0;fillColor=none;top=0;left=0;bottom=0;right=0;editable=1;overflow=hidden;whiteSpace=wrap;html=1;" parent="qxMyWzPqdfgqMwpPQ5BD-28" vertex="1">
          <mxGeometry width="30" height="25" as="geometry">
            <mxRectangle width="30" height="25" as="alternateBounds" />
          </mxGeometry>
        </mxCell>
        <mxCell id="qxMyWzPqdfgqMwpPQ5BD-30" value="string first_name&amp;nbsp;&lt;span style=&quot;text-decoration-line: underline;&quot;&gt;(NOT NULL)&lt;/span&gt;" style="shape=partialRectangle;connectable=0;fillColor=none;top=0;left=0;bottom=0;right=0;align=left;spacingLeft=6;overflow=hidden;whiteSpace=wrap;html=1;" parent="qxMyWzPqdfgqMwpPQ5BD-28" vertex="1">
          <mxGeometry x="30" width="184" height="25" as="geometry">
            <mxRectangle width="184" height="25" as="alternateBounds" />
          </mxGeometry>
        </mxCell>
        <mxCell id="qxMyWzPqdfgqMwpPQ5BD-31" value="" style="shape=tableRow;horizontal=0;startSize=0;swimlaneHead=0;swimlaneBody=0;fillColor=none;collapsible=0;dropTarget=0;points=[[0,0.5],[1,0.5]];portConstraint=eastwest;top=0;left=0;right=0;bottom=0;" parent="qxMyWzPqdfgqMwpPQ5BD-24" vertex="1">
          <mxGeometry y="85" width="214" height="20" as="geometry" />
        </mxCell>
        <mxCell id="qxMyWzPqdfgqMwpPQ5BD-32" value="" style="shape=partialRectangle;connectable=0;fillColor=none;top=0;left=0;bottom=0;right=0;editable=1;overflow=hidden;whiteSpace=wrap;html=1;" parent="qxMyWzPqdfgqMwpPQ5BD-31" vertex="1">
          <mxGeometry width="30" height="20" as="geometry">
            <mxRectangle width="30" height="20" as="alternateBounds" />
          </mxGeometry>
        </mxCell>
        <mxCell id="qxMyWzPqdfgqMwpPQ5BD-33" value="string last_name&amp;nbsp;&lt;span style=&quot;text-decoration-line: underline;&quot;&gt;(NOT NULL)&lt;/span&gt;" style="shape=partialRectangle;connectable=0;fillColor=none;top=0;left=0;bottom=0;right=0;align=left;spacingLeft=6;overflow=hidden;whiteSpace=wrap;html=1;" parent="qxMyWzPqdfgqMwpPQ5BD-31" vertex="1">
          <mxGeometry x="30" width="184" height="20" as="geometry">
            <mxRectangle width="184" height="20" as="alternateBounds" />
          </mxGeometry>
        </mxCell>
        <mxCell id="qxMyWzPqdfgqMwpPQ5BD-34" value="" style="shape=tableRow;horizontal=0;startSize=0;swimlaneHead=0;swimlaneBody=0;fillColor=none;collapsible=0;dropTarget=0;points=[[0,0.5],[1,0.5]];portConstraint=eastwest;top=0;left=0;right=0;bottom=0;" parent="qxMyWzPqdfgqMwpPQ5BD-24" vertex="1">
          <mxGeometry y="105" width="214" height="20" as="geometry" />
        </mxCell>
        <mxCell id="qxMyWzPqdfgqMwpPQ5BD-35" value="" style="shape=partialRectangle;connectable=0;fillColor=none;top=0;left=0;bottom=0;right=0;editable=1;overflow=hidden;whiteSpace=wrap;html=1;" parent="qxMyWzPqdfgqMwpPQ5BD-34" vertex="1">
          <mxGeometry width="30" height="20" as="geometry">
            <mxRectangle width="30" height="20" as="alternateBounds" />
          </mxGeometry>
        </mxCell>
        <mxCell id="qxMyWzPqdfgqMwpPQ5BD-36" value="DateTime birthday" style="shape=partialRectangle;connectable=0;fillColor=none;top=0;left=0;bottom=0;right=0;align=left;spacingLeft=6;overflow=hidden;whiteSpace=wrap;html=1;" parent="qxMyWzPqdfgqMwpPQ5BD-34" vertex="1">
          <mxGeometry x="30" width="184" height="20" as="geometry">
            <mxRectangle width="184" height="20" as="alternateBounds" />
          </mxGeometry>
        </mxCell>
        <mxCell id="qxMyWzPqdfgqMwpPQ5BD-38" value="" style="shape=tableRow;horizontal=0;startSize=0;swimlaneHead=0;swimlaneBody=0;fillColor=none;collapsible=0;dropTarget=0;points=[[0,0.5],[1,0.5]];portConstraint=eastwest;top=0;left=0;right=0;bottom=0;" parent="qxMyWzPqdfgqMwpPQ5BD-24" vertex="1">
          <mxGeometry y="125" width="214" height="20" as="geometry" />
        </mxCell>
        <mxCell id="qxMyWzPqdfgqMwpPQ5BD-39" value="" style="shape=partialRectangle;connectable=0;fillColor=none;top=0;left=0;bottom=0;right=0;editable=1;overflow=hidden;" parent="qxMyWzPqdfgqMwpPQ5BD-38" vertex="1">
          <mxGeometry width="30" height="20" as="geometry">
            <mxRectangle width="30" height="20" as="alternateBounds" />
          </mxGeometry>
        </mxCell>
        <mxCell id="qxMyWzPqdfgqMwpPQ5BD-40" value="string phone" style="shape=partialRectangle;connectable=0;fillColor=none;top=0;left=0;bottom=0;right=0;align=left;spacingLeft=6;overflow=hidden;" parent="qxMyWzPqdfgqMwpPQ5BD-38" vertex="1">
          <mxGeometry x="30" width="184" height="20" as="geometry">
            <mxRectangle width="184" height="20" as="alternateBounds" />
          </mxGeometry>
        </mxCell>
        <mxCell id="qxMyWzPqdfgqMwpPQ5BD-41" value="" style="endArrow=none;html=1;rounded=0;dashed=1;dashPattern=1 2;fontSize=12;startSize=8;endSize=8;curved=1;entryX=0.25;entryY=0;entryDx=0;entryDy=0;" parent="1" target="qxMyWzPqdfgqMwpPQ5BD-3" edge="1">
          <mxGeometry relative="1" as="geometry">
            <mxPoint x="234" y="150" as="sourcePoint" />
            <mxPoint x="390" y="150" as="targetPoint" />
          </mxGeometry>
        </mxCell>
        <mxCell id="qxMyWzPqdfgqMwpPQ5BD-42" value="N" style="resizable=0;html=1;whiteSpace=wrap;align=right;verticalAlign=bottom;" parent="qxMyWzPqdfgqMwpPQ5BD-41" connectable="0" vertex="1">
          <mxGeometry x="1" relative="1" as="geometry">
            <mxPoint x="-10" as="offset" />
          </mxGeometry>
        </mxCell>
        <mxCell id="qxMyWzPqdfgqMwpPQ5BD-43" value="имеет" style="text;html=1;align=center;verticalAlign=middle;whiteSpace=wrap;rounded=0;" parent="1" vertex="1">
          <mxGeometry x="200" y="180" width="60" height="30" as="geometry" />
        </mxCell>
        <mxCell id="qxMyWzPqdfgqMwpPQ5BD-44" value="" style="endArrow=none;html=1;rounded=0;fontSize=12;startSize=8;endSize=8;curved=1;exitX=0.999;exitY=0.794;exitDx=0;exitDy=0;exitPerimeter=0;entryX=0.346;entryY=0.002;entryDx=0;entryDy=0;entryPerimeter=0;" parent="1" source="qxMyWzPqdfgqMwpPQ5BD-28" target="qxMyWzPqdfgqMwpPQ5BD-3" edge="1">
          <mxGeometry relative="1" as="geometry">
            <mxPoint x="230" y="120" as="sourcePoint" />
            <mxPoint x="390" y="120" as="targetPoint" />
          </mxGeometry>
        </mxCell>
        <mxCell id="qxMyWzPqdfgqMwpPQ5BD-45" value="" style="resizable=0;html=1;whiteSpace=wrap;align=right;verticalAlign=bottom;" parent="qxMyWzPqdfgqMwpPQ5BD-44" connectable="0" vertex="1">
          <mxGeometry x="1" relative="1" as="geometry">
            <mxPoint x="-140" as="offset" />
          </mxGeometry>
        </mxCell>
        <mxCell id="qxMyWzPqdfgqMwpPQ5BD-46" value="относится" style="text;html=1;align=center;verticalAlign=middle;whiteSpace=wrap;rounded=0;" parent="1" vertex="1">
          <mxGeometry x="390" y="365" width="60" height="30" as="geometry" />
        </mxCell>
        <mxCell id="qxMyWzPqdfgqMwpPQ5BD-47" value="Награда (Award)" style="shape=table;startSize=30;container=1;collapsible=1;childLayout=tableLayout;fixedRows=1;rowLines=0;fontStyle=1;align=center;resizeLast=1;html=1;" parent="1" vertex="1">
          <mxGeometry x="20" y="310" width="197" height="140" as="geometry" />
        </mxCell>
        <mxCell id="qxMyWzPqdfgqMwpPQ5BD-48" value="" style="shape=tableRow;horizontal=0;startSize=0;swimlaneHead=0;swimlaneBody=0;fillColor=none;collapsible=0;dropTarget=0;points=[[0,0.5],[1,0.5]];portConstraint=eastwest;top=0;left=0;right=0;bottom=1;" parent="qxMyWzPqdfgqMwpPQ5BD-47" vertex="1">
          <mxGeometry y="30" width="197" height="30" as="geometry" />
        </mxCell>
        <mxCell id="qxMyWzPqdfgqMwpPQ5BD-49" value="PK" style="shape=partialRectangle;connectable=0;fillColor=none;top=0;left=0;bottom=0;right=0;fontStyle=1;overflow=hidden;whiteSpace=wrap;html=1;" parent="qxMyWzPqdfgqMwpPQ5BD-48" vertex="1">
          <mxGeometry width="30" height="30" as="geometry">
            <mxRectangle width="30" height="30" as="alternateBounds" />
          </mxGeometry>
        </mxCell>
        <mxCell id="qxMyWzPqdfgqMwpPQ5BD-50" value="int id&amp;nbsp;(NOT NULL)" style="shape=partialRectangle;connectable=0;fillColor=none;top=0;left=0;bottom=0;right=0;align=left;spacingLeft=6;fontStyle=5;overflow=hidden;whiteSpace=wrap;html=1;" parent="qxMyWzPqdfgqMwpPQ5BD-48" vertex="1">
          <mxGeometry x="30" width="167" height="30" as="geometry">
            <mxRectangle width="167" height="30" as="alternateBounds" />
          </mxGeometry>
        </mxCell>
        <mxCell id="qxMyWzPqdfgqMwpPQ5BD-51" value="" style="shape=tableRow;horizontal=0;startSize=0;swimlaneHead=0;swimlaneBody=0;fillColor=none;collapsible=0;dropTarget=0;points=[[0,0.5],[1,0.5]];portConstraint=eastwest;top=0;left=0;right=0;bottom=0;" parent="qxMyWzPqdfgqMwpPQ5BD-47" vertex="1">
          <mxGeometry y="60" width="197" height="30" as="geometry" />
        </mxCell>
        <mxCell id="qxMyWzPqdfgqMwpPQ5BD-52" value="" style="shape=partialRectangle;connectable=0;fillColor=none;top=0;left=0;bottom=0;right=0;editable=1;overflow=hidden;whiteSpace=wrap;html=1;" parent="qxMyWzPqdfgqMwpPQ5BD-51" vertex="1">
          <mxGeometry width="30" height="30" as="geometry">
            <mxRectangle width="30" height="30" as="alternateBounds" />
          </mxGeometry>
        </mxCell>
        <mxCell id="qxMyWzPqdfgqMwpPQ5BD-53" value="string nomination&amp;nbsp;(NOT NULL)" style="shape=partialRectangle;connectable=0;fillColor=none;top=0;left=0;bottom=0;right=0;align=left;spacingLeft=6;overflow=hidden;whiteSpace=wrap;html=1;" parent="qxMyWzPqdfgqMwpPQ5BD-51" vertex="1">
          <mxGeometry x="30" width="167" height="30" as="geometry">
            <mxRectangle width="167" height="30" as="alternateBounds" />
          </mxGeometry>
        </mxCell>
        <mxCell id="qxMyWzPqdfgqMwpPQ5BD-54" value="" style="shape=tableRow;horizontal=0;startSize=0;swimlaneHead=0;swimlaneBody=0;fillColor=none;collapsible=0;dropTarget=0;points=[[0,0.5],[1,0.5]];portConstraint=eastwest;top=0;left=0;right=0;bottom=0;" parent="qxMyWzPqdfgqMwpPQ5BD-47" vertex="1">
          <mxGeometry y="90" width="197" height="20" as="geometry" />
        </mxCell>
        <mxCell id="qxMyWzPqdfgqMwpPQ5BD-55" value="FK1" style="shape=partialRectangle;connectable=0;fillColor=none;top=0;left=0;bottom=0;right=0;editable=1;overflow=hidden;whiteSpace=wrap;html=1;" parent="qxMyWzPqdfgqMwpPQ5BD-54" vertex="1">
          <mxGeometry width="30" height="20" as="geometry">
            <mxRectangle width="30" height="20" as="alternateBounds" />
          </mxGeometry>
        </mxCell>
        <mxCell id="qxMyWzPqdfgqMwpPQ5BD-56" value="int movie_id" style="shape=partialRectangle;connectable=0;fillColor=none;top=0;left=0;bottom=0;right=0;align=left;spacingLeft=6;overflow=hidden;whiteSpace=wrap;html=1;" parent="qxMyWzPqdfgqMwpPQ5BD-54" vertex="1">
          <mxGeometry x="30" width="167" height="20" as="geometry">
            <mxRectangle width="167" height="20" as="alternateBounds" />
          </mxGeometry>
        </mxCell>
        <mxCell id="qxMyWzPqdfgqMwpPQ5BD-57" value="" style="shape=tableRow;horizontal=0;startSize=0;swimlaneHead=0;swimlaneBody=0;fillColor=none;collapsible=0;dropTarget=0;points=[[0,0.5],[1,0.5]];portConstraint=eastwest;top=0;left=0;right=0;bottom=0;" parent="qxMyWzPqdfgqMwpPQ5BD-47" vertex="1">
          <mxGeometry y="110" width="197" height="30" as="geometry" />
        </mxCell>
        <mxCell id="qxMyWzPqdfgqMwpPQ5BD-58" value="" style="shape=partialRectangle;connectable=0;fillColor=none;top=0;left=0;bottom=0;right=0;editable=1;overflow=hidden;whiteSpace=wrap;html=1;" parent="qxMyWzPqdfgqMwpPQ5BD-57" vertex="1">
          <mxGeometry width="30" height="30" as="geometry">
            <mxRectangle width="30" height="30" as="alternateBounds" />
          </mxGeometry>
        </mxCell>
        <mxCell id="qxMyWzPqdfgqMwpPQ5BD-59" value="DateTime creation_date&amp;nbsp;(NOT NULL)" style="shape=partialRectangle;connectable=0;fillColor=none;top=0;left=0;bottom=0;right=0;align=left;spacingLeft=6;overflow=hidden;whiteSpace=wrap;html=1;" parent="qxMyWzPqdfgqMwpPQ5BD-57" vertex="1">
          <mxGeometry x="30" width="167" height="30" as="geometry">
            <mxRectangle width="167" height="30" as="alternateBounds" />
          </mxGeometry>
        </mxCell>
        <mxCell id="qxMyWzPqdfgqMwpPQ5BD-60" value="" style="endArrow=none;html=1;rounded=0;dashed=1;dashPattern=1 2;fontSize=12;startSize=8;endSize=8;curved=1;entryX=0.999;entryY=0.909;entryDx=0;entryDy=0;entryPerimeter=0;exitX=1;exitY=1;exitDx=0;exitDy=0;" parent="1" source="qxMyWzPqdfgqMwpPQ5BD-62" target="qxMyWzPqdfgqMwpPQ5BD-51" edge="1">
          <mxGeometry relative="1" as="geometry">
            <mxPoint x="310" y="500" as="sourcePoint" />
            <mxPoint x="390" y="340" as="targetPoint" />
          </mxGeometry>
        </mxCell>
        <mxCell id="qxMyWzPqdfgqMwpPQ5BD-61" value="N" style="resizable=0;html=1;whiteSpace=wrap;align=right;verticalAlign=bottom;" parent="qxMyWzPqdfgqMwpPQ5BD-60" connectable="0" vertex="1">
          <mxGeometry x="1" relative="1" as="geometry">
            <mxPoint x="17" y="3" as="offset" />
          </mxGeometry>
        </mxCell>
        <mxCell id="qxMyWzPqdfgqMwpPQ5BD-62" value="имеет" style="text;html=1;align=center;verticalAlign=middle;whiteSpace=wrap;rounded=0;" parent="1" vertex="1">
          <mxGeometry x="260" y="380" width="60" height="30" as="geometry" />
        </mxCell>
        <mxCell id="qxMyWzPqdfgqMwpPQ5BD-67" value="" style="endArrow=none;html=1;rounded=0;fontSize=12;startSize=8;endSize=8;curved=1;exitX=1;exitY=0.5;exitDx=0;exitDy=0;entryX=0;entryY=0.5;entryDx=0;entryDy=0;" parent="1" source="qxMyWzPqdfgqMwpPQ5BD-57" target="qxMyWzPqdfgqMwpPQ5BD-4" edge="1">
          <mxGeometry relative="1" as="geometry">
            <mxPoint x="180" y="290" as="sourcePoint" />
            <mxPoint x="340" y="290" as="targetPoint" />
          </mxGeometry>
        </mxCell>
        <mxCell id="qxMyWzPqdfgqMwpPQ5BD-68" value="1" style="resizable=0;html=1;whiteSpace=wrap;align=right;verticalAlign=bottom;" parent="qxMyWzPqdfgqMwpPQ5BD-67" connectable="0" vertex="1">
          <mxGeometry x="1" relative="1" as="geometry">
            <mxPoint x="-10" y="15" as="offset" />
          </mxGeometry>
        </mxCell>
        <mxCell id="qxMyWzPqdfgqMwpPQ5BD-69" value="принадлежит" style="text;html=1;align=center;verticalAlign=middle;whiteSpace=wrap;rounded=0;" parent="1" vertex="1">
          <mxGeometry x="200" y="440" width="60" height="30" as="geometry" />
        </mxCell>
        <mxCell id="qxMyWzPqdfgqMwpPQ5BD-70" value="Роль (Role)" style="shape=table;startSize=30;container=1;collapsible=1;childLayout=tableLayout;fixedRows=1;rowLines=0;fontStyle=1;align=center;resizeLast=1;html=1;" parent="1" vertex="1">
          <mxGeometry x="217" y="660" width="180" height="120" as="geometry" />
        </mxCell>
        <mxCell id="qxMyWzPqdfgqMwpPQ5BD-71" value="" style="shape=tableRow;horizontal=0;startSize=0;swimlaneHead=0;swimlaneBody=0;fillColor=none;collapsible=0;dropTarget=0;points=[[0,0.5],[1,0.5]];portConstraint=eastwest;top=0;left=0;right=0;bottom=1;" parent="qxMyWzPqdfgqMwpPQ5BD-70" vertex="1">
          <mxGeometry y="30" width="180" height="20" as="geometry" />
        </mxCell>
        <mxCell id="qxMyWzPqdfgqMwpPQ5BD-72" value="PK" style="shape=partialRectangle;connectable=0;fillColor=none;top=0;left=0;bottom=0;right=0;fontStyle=1;overflow=hidden;whiteSpace=wrap;html=1;" parent="qxMyWzPqdfgqMwpPQ5BD-71" vertex="1">
          <mxGeometry width="30" height="20" as="geometry">
            <mxRectangle width="30" height="20" as="alternateBounds" />
          </mxGeometry>
        </mxCell>
        <mxCell id="qxMyWzPqdfgqMwpPQ5BD-73" value="int id&amp;nbsp;(NOT NULL)" style="shape=partialRectangle;connectable=0;fillColor=none;top=0;left=0;bottom=0;right=0;align=left;spacingLeft=6;fontStyle=5;overflow=hidden;whiteSpace=wrap;html=1;" parent="qxMyWzPqdfgqMwpPQ5BD-71" vertex="1">
          <mxGeometry x="30" width="150" height="20" as="geometry">
            <mxRectangle width="150" height="20" as="alternateBounds" />
          </mxGeometry>
        </mxCell>
        <mxCell id="qxMyWzPqdfgqMwpPQ5BD-74" value="" style="shape=tableRow;horizontal=0;startSize=0;swimlaneHead=0;swimlaneBody=0;fillColor=none;collapsible=0;dropTarget=0;points=[[0,0.5],[1,0.5]];portConstraint=eastwest;top=0;left=0;right=0;bottom=0;" parent="qxMyWzPqdfgqMwpPQ5BD-70" vertex="1">
          <mxGeometry y="50" width="180" height="20" as="geometry" />
        </mxCell>
        <mxCell id="qxMyWzPqdfgqMwpPQ5BD-75" value="FK1" style="shape=partialRectangle;connectable=0;fillColor=none;top=0;left=0;bottom=0;right=0;editable=1;overflow=hidden;whiteSpace=wrap;html=1;" parent="qxMyWzPqdfgqMwpPQ5BD-74" vertex="1">
          <mxGeometry width="30" height="20" as="geometry">
            <mxRectangle width="30" height="20" as="alternateBounds" />
          </mxGeometry>
        </mxCell>
        <mxCell id="qxMyWzPqdfgqMwpPQ5BD-76" value="int movie_id (NOT NULL)" style="shape=partialRectangle;connectable=0;fillColor=none;top=0;left=0;bottom=0;right=0;align=left;spacingLeft=6;overflow=hidden;whiteSpace=wrap;html=1;" parent="qxMyWzPqdfgqMwpPQ5BD-74" vertex="1">
          <mxGeometry x="30" width="150" height="20" as="geometry">
            <mxRectangle width="150" height="20" as="alternateBounds" />
          </mxGeometry>
        </mxCell>
        <mxCell id="qxMyWzPqdfgqMwpPQ5BD-77" value="" style="shape=tableRow;horizontal=0;startSize=0;swimlaneHead=0;swimlaneBody=0;fillColor=none;collapsible=0;dropTarget=0;points=[[0,0.5],[1,0.5]];portConstraint=eastwest;top=0;left=0;right=0;bottom=0;" parent="qxMyWzPqdfgqMwpPQ5BD-70" vertex="1">
          <mxGeometry y="70" width="180" height="20" as="geometry" />
        </mxCell>
        <mxCell id="qxMyWzPqdfgqMwpPQ5BD-78" value="FK2" style="shape=partialRectangle;connectable=0;fillColor=none;top=0;left=0;bottom=0;right=0;editable=1;overflow=hidden;whiteSpace=wrap;html=1;" parent="qxMyWzPqdfgqMwpPQ5BD-77" vertex="1">
          <mxGeometry width="30" height="20" as="geometry">
            <mxRectangle width="30" height="20" as="alternateBounds" />
          </mxGeometry>
        </mxCell>
        <mxCell id="qxMyWzPqdfgqMwpPQ5BD-79" value="int actor_id (NOT NULL)" style="shape=partialRectangle;connectable=0;fillColor=none;top=0;left=0;bottom=0;right=0;align=left;spacingLeft=6;overflow=hidden;whiteSpace=wrap;html=1;" parent="qxMyWzPqdfgqMwpPQ5BD-77" vertex="1">
          <mxGeometry x="30" width="150" height="20" as="geometry">
            <mxRectangle width="150" height="20" as="alternateBounds" />
          </mxGeometry>
        </mxCell>
        <mxCell id="qxMyWzPqdfgqMwpPQ5BD-80" value="" style="shape=tableRow;horizontal=0;startSize=0;swimlaneHead=0;swimlaneBody=0;fillColor=none;collapsible=0;dropTarget=0;points=[[0,0.5],[1,0.5]];portConstraint=eastwest;top=0;left=0;right=0;bottom=0;" parent="qxMyWzPqdfgqMwpPQ5BD-70" vertex="1">
          <mxGeometry y="90" width="180" height="30" as="geometry" />
        </mxCell>
        <mxCell id="qxMyWzPqdfgqMwpPQ5BD-81" value="" style="shape=partialRectangle;connectable=0;fillColor=none;top=0;left=0;bottom=0;right=0;editable=1;overflow=hidden;whiteSpace=wrap;html=1;" parent="qxMyWzPqdfgqMwpPQ5BD-80" vertex="1">
          <mxGeometry width="30" height="30" as="geometry">
            <mxRectangle width="30" height="30" as="alternateBounds" />
          </mxGeometry>
        </mxCell>
        <mxCell id="qxMyWzPqdfgqMwpPQ5BD-82" value="string role_name (NOT NULL)" style="shape=partialRectangle;connectable=0;fillColor=none;top=0;left=0;bottom=0;right=0;align=left;spacingLeft=6;overflow=hidden;whiteSpace=wrap;html=1;" parent="qxMyWzPqdfgqMwpPQ5BD-80" vertex="1">
          <mxGeometry x="30" width="150" height="30" as="geometry">
            <mxRectangle width="150" height="30" as="alternateBounds" />
          </mxGeometry>
        </mxCell>
        <mxCell id="qxMyWzPqdfgqMwpPQ5BD-84" value="1" style="text;html=1;align=center;verticalAlign=middle;whiteSpace=wrap;rounded=0;" parent="1" vertex="1">
          <mxGeometry x="250" y="120" width="10" height="17.5" as="geometry" />
        </mxCell>
        <mxCell id="qxMyWzPqdfgqMwpPQ5BD-87" value="" style="endArrow=none;html=1;rounded=0;fontSize=12;startSize=8;endSize=8;curved=1;entryX=0.574;entryY=-0.012;entryDx=0;entryDy=0;entryPerimeter=0;" parent="1" target="qxMyWzPqdfgqMwpPQ5BD-70" edge="1">
          <mxGeometry relative="1" as="geometry">
            <mxPoint x="320" y="580" as="sourcePoint" />
            <mxPoint x="400" y="650" as="targetPoint" />
          </mxGeometry>
        </mxCell>
        <mxCell id="qxMyWzPqdfgqMwpPQ5BD-89" value="N" style="resizable=0;html=1;whiteSpace=wrap;align=right;verticalAlign=bottom;" parent="qxMyWzPqdfgqMwpPQ5BD-87" connectable="0" vertex="1">
          <mxGeometry x="1" relative="1" as="geometry">
            <mxPoint x="-10" y="-9" as="offset" />
          </mxGeometry>
        </mxCell>
        <mxCell id="qxMyWzPqdfgqMwpPQ5BD-90" value="содержит" style="text;html=1;align=center;verticalAlign=middle;whiteSpace=wrap;rounded=0;" parent="1" vertex="1">
          <mxGeometry x="270" y="580" width="40" height="20" as="geometry" />
        </mxCell>
        <mxCell id="qxMyWzPqdfgqMwpPQ5BD-91" value="" style="endArrow=none;html=1;rounded=0;fontSize=12;startSize=8;endSize=8;curved=1;exitX=0.75;exitY=0;exitDx=0;exitDy=0;entryX=0.174;entryY=1.1;entryDx=0;entryDy=0;entryPerimeter=0;" parent="1" source="qxMyWzPqdfgqMwpPQ5BD-70" target="tSDNeqlSTbHbwNg6o-KT-10" edge="1">
          <mxGeometry relative="1" as="geometry">
            <mxPoint x="290" y="650" as="sourcePoint" />
            <mxPoint x="352" y="570" as="targetPoint" />
          </mxGeometry>
        </mxCell>
        <mxCell id="qxMyWzPqdfgqMwpPQ5BD-92" value="1" style="resizable=0;html=1;whiteSpace=wrap;align=right;verticalAlign=bottom;" parent="qxMyWzPqdfgqMwpPQ5BD-91" connectable="0" vertex="1">
          <mxGeometry x="1" relative="1" as="geometry">
            <mxPoint x="18" y="20" as="offset" />
          </mxGeometry>
        </mxCell>
        <mxCell id="qxMyWzPqdfgqMwpPQ5BD-93" value="принадлежит" style="text;html=1;align=center;verticalAlign=middle;whiteSpace=wrap;rounded=0;" parent="1" vertex="1">
          <mxGeometry x="365" y="630" width="60" height="30" as="geometry" />
        </mxCell>
        <mxCell id="qxMyWzPqdfgqMwpPQ5BD-94" value="Актер (Actor)" style="shape=table;startSize=30;container=1;collapsible=1;childLayout=tableLayout;fixedRows=1;rowLines=0;fontStyle=1;align=center;resizeLast=1;html=1;" parent="1" vertex="1">
          <mxGeometry x="581" y="650" width="220" height="150" as="geometry" />
        </mxCell>
        <mxCell id="qxMyWzPqdfgqMwpPQ5BD-95" value="" style="shape=tableRow;horizontal=0;startSize=0;swimlaneHead=0;swimlaneBody=0;fillColor=none;collapsible=0;dropTarget=0;points=[[0,0.5],[1,0.5]];portConstraint=eastwest;top=0;left=0;right=0;bottom=1;" parent="qxMyWzPqdfgqMwpPQ5BD-94" vertex="1">
          <mxGeometry y="30" width="220" height="20" as="geometry" />
        </mxCell>
        <mxCell id="qxMyWzPqdfgqMwpPQ5BD-96" value="PK" style="shape=partialRectangle;connectable=0;fillColor=none;top=0;left=0;bottom=0;right=0;fontStyle=1;overflow=hidden;whiteSpace=wrap;html=1;" parent="qxMyWzPqdfgqMwpPQ5BD-95" vertex="1">
          <mxGeometry width="30" height="20" as="geometry">
            <mxRectangle width="30" height="20" as="alternateBounds" />
          </mxGeometry>
        </mxCell>
        <mxCell id="qxMyWzPqdfgqMwpPQ5BD-97" value="int id&amp;nbsp;(NOT NULL)" style="shape=partialRectangle;connectable=0;fillColor=none;top=0;left=0;bottom=0;right=0;align=left;spacingLeft=6;fontStyle=5;overflow=hidden;whiteSpace=wrap;html=1;" parent="qxMyWzPqdfgqMwpPQ5BD-95" vertex="1">
          <mxGeometry x="30" width="190" height="20" as="geometry">
            <mxRectangle width="190" height="20" as="alternateBounds" />
          </mxGeometry>
        </mxCell>
        <mxCell id="qxMyWzPqdfgqMwpPQ5BD-98" value="" style="shape=tableRow;horizontal=0;startSize=0;swimlaneHead=0;swimlaneBody=0;fillColor=none;collapsible=0;dropTarget=0;points=[[0,0.5],[1,0.5]];portConstraint=eastwest;top=0;left=0;right=0;bottom=0;" parent="qxMyWzPqdfgqMwpPQ5BD-94" vertex="1">
          <mxGeometry y="50" width="220" height="20" as="geometry" />
        </mxCell>
        <mxCell id="qxMyWzPqdfgqMwpPQ5BD-99" value="" style="shape=partialRectangle;connectable=0;fillColor=none;top=0;left=0;bottom=0;right=0;editable=1;overflow=hidden;whiteSpace=wrap;html=1;" parent="qxMyWzPqdfgqMwpPQ5BD-98" vertex="1">
          <mxGeometry width="30" height="20" as="geometry">
            <mxRectangle width="30" height="20" as="alternateBounds" />
          </mxGeometry>
        </mxCell>
        <mxCell id="qxMyWzPqdfgqMwpPQ5BD-100" value="string first_name (NOT NULL)" style="shape=partialRectangle;connectable=0;fillColor=none;top=0;left=0;bottom=0;right=0;align=left;spacingLeft=6;overflow=hidden;whiteSpace=wrap;html=1;" parent="qxMyWzPqdfgqMwpPQ5BD-98" vertex="1">
          <mxGeometry x="30" width="190" height="20" as="geometry">
            <mxRectangle width="190" height="20" as="alternateBounds" />
          </mxGeometry>
        </mxCell>
        <mxCell id="qxMyWzPqdfgqMwpPQ5BD-101" value="" style="shape=tableRow;horizontal=0;startSize=0;swimlaneHead=0;swimlaneBody=0;fillColor=none;collapsible=0;dropTarget=0;points=[[0,0.5],[1,0.5]];portConstraint=eastwest;top=0;left=0;right=0;bottom=0;" parent="qxMyWzPqdfgqMwpPQ5BD-94" vertex="1">
          <mxGeometry y="70" width="220" height="20" as="geometry" />
        </mxCell>
        <mxCell id="qxMyWzPqdfgqMwpPQ5BD-102" value="" style="shape=partialRectangle;connectable=0;fillColor=none;top=0;left=0;bottom=0;right=0;editable=1;overflow=hidden;whiteSpace=wrap;html=1;" parent="qxMyWzPqdfgqMwpPQ5BD-101" vertex="1">
          <mxGeometry width="30" height="20" as="geometry">
            <mxRectangle width="30" height="20" as="alternateBounds" />
          </mxGeometry>
        </mxCell>
        <mxCell id="qxMyWzPqdfgqMwpPQ5BD-103" value="string last_name (NOT NULL)" style="shape=partialRectangle;connectable=0;fillColor=none;top=0;left=0;bottom=0;right=0;align=left;spacingLeft=6;overflow=hidden;whiteSpace=wrap;html=1;" parent="qxMyWzPqdfgqMwpPQ5BD-101" vertex="1">
          <mxGeometry x="30" width="190" height="20" as="geometry">
            <mxRectangle width="190" height="20" as="alternateBounds" />
          </mxGeometry>
        </mxCell>
        <mxCell id="tSDNeqlSTbHbwNg6o-KT-14" value="" style="shape=tableRow;horizontal=0;startSize=0;swimlaneHead=0;swimlaneBody=0;fillColor=none;collapsible=0;dropTarget=0;points=[[0,0.5],[1,0.5]];portConstraint=eastwest;top=0;left=0;right=0;bottom=0;" parent="qxMyWzPqdfgqMwpPQ5BD-94" vertex="1">
          <mxGeometry y="90" width="220" height="20" as="geometry" />
        </mxCell>
        <mxCell id="tSDNeqlSTbHbwNg6o-KT-15" value="" style="shape=partialRectangle;connectable=0;fillColor=none;top=0;left=0;bottom=0;right=0;editable=1;overflow=hidden;" parent="tSDNeqlSTbHbwNg6o-KT-14" vertex="1">
          <mxGeometry width="30" height="20" as="geometry">
            <mxRectangle width="30" height="20" as="alternateBounds" />
          </mxGeometry>
        </mxCell>
        <mxCell id="tSDNeqlSTbHbwNg6o-KT-16" value="string middle_name (NOT NULL)" style="shape=partialRectangle;connectable=0;fillColor=none;top=0;left=0;bottom=0;right=0;align=left;spacingLeft=6;overflow=hidden;" parent="tSDNeqlSTbHbwNg6o-KT-14" vertex="1">
          <mxGeometry x="30" width="190" height="20" as="geometry">
            <mxRectangle width="190" height="20" as="alternateBounds" />
          </mxGeometry>
        </mxCell>
        <mxCell id="tSDNeqlSTbHbwNg6o-KT-20" value="" style="shape=tableRow;horizontal=0;startSize=0;swimlaneHead=0;swimlaneBody=0;fillColor=none;collapsible=0;dropTarget=0;points=[[0,0.5],[1,0.5]];portConstraint=eastwest;top=0;left=0;right=0;bottom=0;" parent="qxMyWzPqdfgqMwpPQ5BD-94" vertex="1">
          <mxGeometry y="110" width="220" height="20" as="geometry" />
        </mxCell>
        <mxCell id="tSDNeqlSTbHbwNg6o-KT-21" value="" style="shape=partialRectangle;connectable=0;fillColor=none;top=0;left=0;bottom=0;right=0;editable=1;overflow=hidden;" parent="tSDNeqlSTbHbwNg6o-KT-20" vertex="1">
          <mxGeometry width="30" height="20" as="geometry">
            <mxRectangle width="30" height="20" as="alternateBounds" />
          </mxGeometry>
        </mxCell>
        <mxCell id="tSDNeqlSTbHbwNg6o-KT-22" value="DateTime birthday (NOT NULL)" style="shape=partialRectangle;connectable=0;fillColor=none;top=0;left=0;bottom=0;right=0;align=left;spacingLeft=6;overflow=hidden;" parent="tSDNeqlSTbHbwNg6o-KT-20" vertex="1">
          <mxGeometry x="30" width="190" height="20" as="geometry">
            <mxRectangle width="190" height="20" as="alternateBounds" />
          </mxGeometry>
        </mxCell>
        <mxCell id="tSDNeqlSTbHbwNg6o-KT-24" value="" style="shape=tableRow;horizontal=0;startSize=0;swimlaneHead=0;swimlaneBody=0;fillColor=none;collapsible=0;dropTarget=0;points=[[0,0.5],[1,0.5]];portConstraint=eastwest;top=0;left=0;right=0;bottom=0;" parent="qxMyWzPqdfgqMwpPQ5BD-94" vertex="1">
          <mxGeometry y="130" width="220" height="20" as="geometry" />
        </mxCell>
        <mxCell id="tSDNeqlSTbHbwNg6o-KT-25" value="" style="shape=partialRectangle;connectable=0;fillColor=none;top=0;left=0;bottom=0;right=0;editable=1;overflow=hidden;" parent="tSDNeqlSTbHbwNg6o-KT-24" vertex="1">
          <mxGeometry width="30" height="20" as="geometry">
            <mxRectangle width="30" height="20" as="alternateBounds" />
          </mxGeometry>
        </mxCell>
        <mxCell id="tSDNeqlSTbHbwNg6o-KT-26" value="string biography" style="shape=partialRectangle;connectable=0;fillColor=none;top=0;left=0;bottom=0;right=0;align=left;spacingLeft=6;overflow=hidden;" parent="tSDNeqlSTbHbwNg6o-KT-24" vertex="1">
          <mxGeometry x="30" width="190" height="20" as="geometry">
            <mxRectangle width="190" height="20" as="alternateBounds" />
          </mxGeometry>
        </mxCell>
        <mxCell id="qxMyWzPqdfgqMwpPQ5BD-111" value="" style="endArrow=none;html=1;rounded=0;dashed=1;dashPattern=1 2;fontSize=12;startSize=8;endSize=8;curved=1;exitX=1.006;exitY=-0.017;exitDx=0;exitDy=0;exitPerimeter=0;" parent="1" source="qxMyWzPqdfgqMwpPQ5BD-80" edge="1">
          <mxGeometry relative="1" as="geometry">
            <mxPoint x="420" y="750" as="sourcePoint" />
            <mxPoint x="580" y="750" as="targetPoint" />
          </mxGeometry>
        </mxCell>
        <mxCell id="qxMyWzPqdfgqMwpPQ5BD-112" value="N" style="resizable=0;html=1;whiteSpace=wrap;align=right;verticalAlign=bottom;" parent="qxMyWzPqdfgqMwpPQ5BD-111" connectable="0" vertex="1">
          <mxGeometry x="1" relative="1" as="geometry">
            <mxPoint x="-160" y="20" as="offset" />
          </mxGeometry>
        </mxCell>
        <mxCell id="qxMyWzPqdfgqMwpPQ5BD-113" value="имеет" style="text;html=1;align=center;verticalAlign=middle;whiteSpace=wrap;rounded=0;" parent="1" vertex="1">
          <mxGeometry x="530" y="750" width="60" height="30" as="geometry" />
        </mxCell>
        <mxCell id="qxMyWzPqdfgqMwpPQ5BD-114" value="" style="endArrow=none;html=1;rounded=0;fontSize=12;startSize=8;endSize=8;curved=1;exitX=1;exitY=0.5;exitDx=0;exitDy=0;" parent="1" source="qxMyWzPqdfgqMwpPQ5BD-74" edge="1">
          <mxGeometry relative="1" as="geometry">
            <mxPoint x="420" y="719.58" as="sourcePoint" />
            <mxPoint x="580" y="719.58" as="targetPoint" />
          </mxGeometry>
        </mxCell>
        <mxCell id="qxMyWzPqdfgqMwpPQ5BD-115" value="1" style="resizable=0;html=1;whiteSpace=wrap;align=right;verticalAlign=bottom;" parent="qxMyWzPqdfgqMwpPQ5BD-114" connectable="0" vertex="1">
          <mxGeometry x="1" relative="1" as="geometry">
            <mxPoint x="-10" y="-10" as="offset" />
          </mxGeometry>
        </mxCell>
        <mxCell id="qxMyWzPqdfgqMwpPQ5BD-116" value="принадлежит" style="text;html=1;align=center;verticalAlign=middle;whiteSpace=wrap;rounded=0;" parent="1" vertex="1">
          <mxGeometry x="410" y="690" width="60" height="30" as="geometry" />
        </mxCell>
        <mxCell id="qxMyWzPqdfgqMwpPQ5BD-117" value="Жанр фильма (MovieGenre)" style="shape=table;startSize=20;container=1;collapsible=1;childLayout=tableLayout;fixedRows=1;rowLines=0;fontStyle=1;align=center;resizeLast=1;html=1;" parent="1" vertex="1">
          <mxGeometry x="605" y="230" width="210" height="110" as="geometry" />
        </mxCell>
        <mxCell id="qxMyWzPqdfgqMwpPQ5BD-121" value="" style="shape=tableRow;horizontal=0;startSize=0;swimlaneHead=0;swimlaneBody=0;fillColor=none;collapsible=0;dropTarget=0;points=[[0,0.5],[1,0.5]];portConstraint=eastwest;top=0;left=0;right=0;bottom=0;" parent="qxMyWzPqdfgqMwpPQ5BD-117" vertex="1">
          <mxGeometry y="20" width="210" height="30" as="geometry" />
        </mxCell>
        <mxCell id="qxMyWzPqdfgqMwpPQ5BD-122" value="FK" style="shape=partialRectangle;connectable=0;fillColor=none;top=0;left=0;bottom=0;right=0;editable=1;overflow=hidden;whiteSpace=wrap;html=1;" parent="qxMyWzPqdfgqMwpPQ5BD-121" vertex="1">
          <mxGeometry width="30" height="30" as="geometry">
            <mxRectangle width="30" height="30" as="alternateBounds" />
          </mxGeometry>
        </mxCell>
        <mxCell id="qxMyWzPqdfgqMwpPQ5BD-123" value="int movie_id (NOT NULL)" style="shape=partialRectangle;connectable=0;fillColor=none;top=0;left=0;bottom=0;right=0;align=left;spacingLeft=6;overflow=hidden;whiteSpace=wrap;html=1;" parent="qxMyWzPqdfgqMwpPQ5BD-121" vertex="1">
          <mxGeometry x="30" width="180" height="30" as="geometry">
            <mxRectangle width="180" height="30" as="alternateBounds" />
          </mxGeometry>
        </mxCell>
        <mxCell id="qxMyWzPqdfgqMwpPQ5BD-124" value="" style="shape=tableRow;horizontal=0;startSize=0;swimlaneHead=0;swimlaneBody=0;fillColor=none;collapsible=0;dropTarget=0;points=[[0,0.5],[1,0.5]];portConstraint=eastwest;top=0;left=0;right=0;bottom=0;" parent="qxMyWzPqdfgqMwpPQ5BD-117" vertex="1">
          <mxGeometry y="50" width="210" height="30" as="geometry" />
        </mxCell>
        <mxCell id="qxMyWzPqdfgqMwpPQ5BD-125" value="&lt;div&gt;FK&lt;/div&gt;" style="shape=partialRectangle;connectable=0;fillColor=none;top=0;left=0;bottom=0;right=0;editable=1;overflow=hidden;whiteSpace=wrap;html=1;" parent="qxMyWzPqdfgqMwpPQ5BD-124" vertex="1">
          <mxGeometry width="30" height="30" as="geometry">
            <mxRectangle width="30" height="30" as="alternateBounds" />
          </mxGeometry>
        </mxCell>
        <mxCell id="qxMyWzPqdfgqMwpPQ5BD-126" value="int genre_id (NOT NULL)" style="shape=partialRectangle;connectable=0;fillColor=none;top=0;left=0;bottom=0;right=0;align=left;spacingLeft=6;overflow=hidden;whiteSpace=wrap;html=1;" parent="qxMyWzPqdfgqMwpPQ5BD-124" vertex="1">
          <mxGeometry x="30" width="180" height="30" as="geometry">
            <mxRectangle width="180" height="30" as="alternateBounds" />
          </mxGeometry>
        </mxCell>
        <mxCell id="MYfEGoxwKnjtZeB1u4UR-2" value="" style="shape=tableRow;horizontal=0;startSize=0;swimlaneHead=0;swimlaneBody=0;fillColor=none;collapsible=0;dropTarget=0;points=[[0,0.5],[1,0.5]];portConstraint=eastwest;top=0;left=0;right=0;bottom=0;" vertex="1" parent="qxMyWzPqdfgqMwpPQ5BD-117">
          <mxGeometry y="80" width="210" height="30" as="geometry" />
        </mxCell>
        <mxCell id="MYfEGoxwKnjtZeB1u4UR-3" value="PK" style="shape=partialRectangle;connectable=0;fillColor=none;top=0;left=0;bottom=0;right=0;editable=1;overflow=hidden;fontStyle=1" vertex="1" parent="MYfEGoxwKnjtZeB1u4UR-2">
          <mxGeometry width="30" height="30" as="geometry">
            <mxRectangle width="30" height="30" as="alternateBounds" />
          </mxGeometry>
        </mxCell>
        <mxCell id="MYfEGoxwKnjtZeB1u4UR-4" value="int id (NOT NULL)" style="shape=partialRectangle;connectable=0;fillColor=none;top=0;left=0;bottom=0;right=0;align=left;spacingLeft=6;overflow=hidden;fontStyle=1" vertex="1" parent="MYfEGoxwKnjtZeB1u4UR-2">
          <mxGeometry x="30" width="180" height="30" as="geometry">
            <mxRectangle width="180" height="30" as="alternateBounds" />
          </mxGeometry>
        </mxCell>
        <mxCell id="qxMyWzPqdfgqMwpPQ5BD-130" value="Жанр (Genre)" style="shape=table;startSize=30;container=1;collapsible=1;childLayout=tableLayout;fixedRows=1;rowLines=0;fontStyle=1;align=center;resizeLast=1;html=1;" parent="1" vertex="1">
          <mxGeometry x="620" y="17.5" width="180" height="120" as="geometry" />
        </mxCell>
        <mxCell id="qxMyWzPqdfgqMwpPQ5BD-131" value="" style="shape=tableRow;horizontal=0;startSize=0;swimlaneHead=0;swimlaneBody=0;fillColor=none;collapsible=0;dropTarget=0;points=[[0,0.5],[1,0.5]];portConstraint=eastwest;top=0;left=0;right=0;bottom=1;" parent="qxMyWzPqdfgqMwpPQ5BD-130" vertex="1">
          <mxGeometry y="30" width="180" height="30" as="geometry" />
        </mxCell>
        <mxCell id="qxMyWzPqdfgqMwpPQ5BD-132" value="PK" style="shape=partialRectangle;connectable=0;fillColor=none;top=0;left=0;bottom=0;right=0;fontStyle=1;overflow=hidden;whiteSpace=wrap;html=1;" parent="qxMyWzPqdfgqMwpPQ5BD-131" vertex="1">
          <mxGeometry width="30" height="30" as="geometry">
            <mxRectangle width="30" height="30" as="alternateBounds" />
          </mxGeometry>
        </mxCell>
        <mxCell id="qxMyWzPqdfgqMwpPQ5BD-133" value="int id&amp;nbsp;(NOT NULL)" style="shape=partialRectangle;connectable=0;fillColor=none;top=0;left=0;bottom=0;right=0;align=left;spacingLeft=6;fontStyle=5;overflow=hidden;whiteSpace=wrap;html=1;" parent="qxMyWzPqdfgqMwpPQ5BD-131" vertex="1">
          <mxGeometry x="30" width="150" height="30" as="geometry">
            <mxRectangle width="150" height="30" as="alternateBounds" />
          </mxGeometry>
        </mxCell>
        <mxCell id="qxMyWzPqdfgqMwpPQ5BD-134" value="" style="shape=tableRow;horizontal=0;startSize=0;swimlaneHead=0;swimlaneBody=0;fillColor=none;collapsible=0;dropTarget=0;points=[[0,0.5],[1,0.5]];portConstraint=eastwest;top=0;left=0;right=0;bottom=0;" parent="qxMyWzPqdfgqMwpPQ5BD-130" vertex="1">
          <mxGeometry y="60" width="180" height="30" as="geometry" />
        </mxCell>
        <mxCell id="qxMyWzPqdfgqMwpPQ5BD-135" value="" style="shape=partialRectangle;connectable=0;fillColor=none;top=0;left=0;bottom=0;right=0;editable=1;overflow=hidden;whiteSpace=wrap;html=1;" parent="qxMyWzPqdfgqMwpPQ5BD-134" vertex="1">
          <mxGeometry width="30" height="30" as="geometry">
            <mxRectangle width="30" height="30" as="alternateBounds" />
          </mxGeometry>
        </mxCell>
        <mxCell id="qxMyWzPqdfgqMwpPQ5BD-136" value="string name (NOT NULL)" style="shape=partialRectangle;connectable=0;fillColor=none;top=0;left=0;bottom=0;right=0;align=left;spacingLeft=6;overflow=hidden;whiteSpace=wrap;html=1;" parent="qxMyWzPqdfgqMwpPQ5BD-134" vertex="1">
          <mxGeometry x="30" width="150" height="30" as="geometry">
            <mxRectangle width="150" height="30" as="alternateBounds" />
          </mxGeometry>
        </mxCell>
        <mxCell id="qxMyWzPqdfgqMwpPQ5BD-137" value="" style="shape=tableRow;horizontal=0;startSize=0;swimlaneHead=0;swimlaneBody=0;fillColor=none;collapsible=0;dropTarget=0;points=[[0,0.5],[1,0.5]];portConstraint=eastwest;top=0;left=0;right=0;bottom=0;" parent="qxMyWzPqdfgqMwpPQ5BD-130" vertex="1">
          <mxGeometry y="90" width="180" height="30" as="geometry" />
        </mxCell>
        <mxCell id="qxMyWzPqdfgqMwpPQ5BD-138" value="" style="shape=partialRectangle;connectable=0;fillColor=none;top=0;left=0;bottom=0;right=0;editable=1;overflow=hidden;whiteSpace=wrap;html=1;" parent="qxMyWzPqdfgqMwpPQ5BD-137" vertex="1">
          <mxGeometry width="30" height="30" as="geometry">
            <mxRectangle width="30" height="30" as="alternateBounds" />
          </mxGeometry>
        </mxCell>
        <mxCell id="qxMyWzPqdfgqMwpPQ5BD-139" value="string description" style="shape=partialRectangle;connectable=0;fillColor=none;top=0;left=0;bottom=0;right=0;align=left;spacingLeft=6;overflow=hidden;whiteSpace=wrap;html=1;" parent="qxMyWzPqdfgqMwpPQ5BD-137" vertex="1">
          <mxGeometry x="30" width="150" height="30" as="geometry">
            <mxRectangle width="150" height="30" as="alternateBounds" />
          </mxGeometry>
        </mxCell>
        <mxCell id="qxMyWzPqdfgqMwpPQ5BD-143" value="" style="endArrow=none;html=1;rounded=0;fontSize=12;startSize=8;endSize=8;curved=1;entryX=0.549;entryY=-0.001;entryDx=0;entryDy=0;entryPerimeter=0;" parent="1" target="qxMyWzPqdfgqMwpPQ5BD-117" edge="1">
          <mxGeometry relative="1" as="geometry">
            <mxPoint x="720" y="140" as="sourcePoint" />
            <mxPoint x="740" y="180" as="targetPoint" />
          </mxGeometry>
        </mxCell>
        <mxCell id="qxMyWzPqdfgqMwpPQ5BD-144" value="N" style="resizable=0;html=1;whiteSpace=wrap;align=right;verticalAlign=bottom;" parent="qxMyWzPqdfgqMwpPQ5BD-143" connectable="0" vertex="1">
          <mxGeometry x="1" relative="1" as="geometry">
            <mxPoint x="20" as="offset" />
          </mxGeometry>
        </mxCell>
        <mxCell id="qxMyWzPqdfgqMwpPQ5BD-145" value="относится" style="text;html=1;align=center;verticalAlign=middle;whiteSpace=wrap;rounded=0;" parent="1" vertex="1">
          <mxGeometry x="720" y="137.5" width="60" height="30" as="geometry" />
        </mxCell>
        <mxCell id="qxMyWzPqdfgqMwpPQ5BD-146" value="" style="endArrow=none;html=1;rounded=0;fontSize=12;startSize=8;endSize=8;curved=1;exitX=1.015;exitY=-0.009;exitDx=0;exitDy=0;exitPerimeter=0;entryX=0.641;entryY=0.964;entryDx=0;entryDy=0;entryPerimeter=0;" parent="1" source="qxMyWzPqdfgqMwpPQ5BD-17" target="MYfEGoxwKnjtZeB1u4UR-2" edge="1">
          <mxGeometry relative="1" as="geometry">
            <mxPoint x="510" y="390" as="sourcePoint" />
            <mxPoint x="670" y="390" as="targetPoint" />
          </mxGeometry>
        </mxCell>
        <mxCell id="qxMyWzPqdfgqMwpPQ5BD-147" value="N" style="resizable=0;html=1;whiteSpace=wrap;align=right;verticalAlign=bottom;" parent="qxMyWzPqdfgqMwpPQ5BD-146" connectable="0" vertex="1">
          <mxGeometry x="1" relative="1" as="geometry">
            <mxPoint x="10" y="26" as="offset" />
          </mxGeometry>
        </mxCell>
        <mxCell id="qxMyWzPqdfgqMwpPQ5BD-148" value="имеет" style="text;html=1;align=center;verticalAlign=middle;whiteSpace=wrap;rounded=0;" parent="1" vertex="1">
          <mxGeometry x="560" y="500" width="60" height="30" as="geometry" />
        </mxCell>
        <mxCell id="tSDNeqlSTbHbwNg6o-KT-27" value="" style="endArrow=none;html=1;rounded=0;fontSize=12;startSize=8;endSize=8;curved=1;exitX=0.412;exitY=1.016;exitDx=0;exitDy=0;exitPerimeter=0;entryX=1;entryY=0.5;entryDx=0;entryDy=0;" parent="1" source="MYfEGoxwKnjtZeB1u4UR-2" target="qxMyWzPqdfgqMwpPQ5BD-7" edge="1">
          <mxGeometry relative="1" as="geometry">
            <mxPoint x="550" y="400" as="sourcePoint" />
            <mxPoint x="710" y="400" as="targetPoint" />
          </mxGeometry>
        </mxCell>
        <mxCell id="tSDNeqlSTbHbwNg6o-KT-28" value="1" style="resizable=0;html=1;whiteSpace=wrap;align=right;verticalAlign=bottom;" parent="tSDNeqlSTbHbwNg6o-KT-27" connectable="0" vertex="1">
          <mxGeometry x="1" relative="1" as="geometry">
            <mxPoint x="20" y="-20" as="offset" />
          </mxGeometry>
        </mxCell>
        <mxCell id="tSDNeqlSTbHbwNg6o-KT-29" value="относится" style="text;html=1;align=center;verticalAlign=middle;whiteSpace=wrap;rounded=0;" parent="1" vertex="1">
          <mxGeometry x="610" y="340" width="60" height="30" as="geometry" />
        </mxCell>
        <mxCell id="tSDNeqlSTbHbwNg6o-KT-30" value="" style="endArrow=none;html=1;rounded=0;fontSize=12;startSize=8;endSize=8;curved=1;exitX=0.25;exitY=0;exitDx=0;exitDy=0;entryX=0.206;entryY=1.002;entryDx=0;entryDy=0;entryPerimeter=0;" parent="1" source="qxMyWzPqdfgqMwpPQ5BD-117" target="qxMyWzPqdfgqMwpPQ5BD-137" edge="1">
          <mxGeometry relative="1" as="geometry">
            <mxPoint x="570" y="220" as="sourcePoint" />
            <mxPoint x="730" y="220" as="targetPoint" />
          </mxGeometry>
        </mxCell>
        <mxCell id="tSDNeqlSTbHbwNg6o-KT-31" value="1" style="resizable=0;html=1;whiteSpace=wrap;align=right;verticalAlign=bottom;" parent="tSDNeqlSTbHbwNg6o-KT-30" connectable="0" vertex="1">
          <mxGeometry x="1" relative="1" as="geometry">
            <mxPoint x="-7" y="27" as="offset" />
          </mxGeometry>
        </mxCell>
        <mxCell id="tSDNeqlSTbHbwNg6o-KT-32" value="относится" style="text;html=1;align=center;verticalAlign=middle;whiteSpace=wrap;rounded=0;" parent="1" vertex="1">
          <mxGeometry x="590" y="200" width="60" height="30" as="geometry" />
        </mxCell>
      </root>
    </mxGraphModel>
  </diagram>
</mxfile>
